<?xml version="1.0" encoding="UTF-8" standalone="no"?>
<!-- Created with Inkscape (http://www.inkscape.org/) -->

<svg
   width="32"
   height="32"
   viewBox="0 0 32 32"
   version="1.1"
   id="svg1"
   inkscape:version="1.4 (86a8ad7, 2024-10-11)"
   sodipodi:docname="coin.svg"
   xmlns:inkscape="http://www.inkscape.org/namespaces/inkscape"
   xmlns:sodipodi="http://sodipodi.sourceforge.net/DTD/sodipodi-0.dtd"
   xmlns="http://www.w3.org/2000/svg"
   xmlns:svg="http://www.w3.org/2000/svg">
  <sodipodi:namedview
     id="namedview1"
     pagecolor="#505050"
     bordercolor="#eeeeee"
     borderopacity="1"
     inkscape:showpageshadow="0"
     inkscape:pageopacity="0"
     inkscape:pagecheckerboard="0"
     inkscape:deskcolor="#505050"
     inkscape:document-units="px"
     inkscape:zoom="6.4765625"
     inkscape:cx="-14.899879"
     inkscape:cy="11.348613"
     inkscape:window-width="1920"
     inkscape:window-height="1009"
     inkscape:window-x="-8"
     inkscape:window-y="-8"
     inkscape:window-maximized="1"
     inkscape:current-layer="layer1" />
  <defs
     id="defs1">
    <clipPath
       clipPathUnits="userSpaceOnUse"
       id="clipPath5">
      <rect
         style="fill:none;stroke:#000000;stroke-linecap:butt;stroke-linejoin:bevel;paint-order:stroke markers fill;stop-color:#000000"
         id="rect5"
         width="45.034248"
         height="38.955639"
         x="262.48285"
         y="121.00073" />
    </clipPath>
    <clipPath
       clipPathUnits="userSpaceOnUse"
       id="clipPath15">
      <rect
         style="fill:none;stroke:#000000;stroke-linecap:butt;stroke-linejoin:bevel;paint-order:stroke markers fill;stop-color:#000000"
         id="rect15-7"
         width="45.034248"
         height="38.955639"
         x="262.48285"
         y="121.00073" />
    </clipPath>
    <linearGradient
       id="swatch3"
       inkscape:swatch="solid">
      <stop
         style="stop-color:#d1c2c2;stop-opacity:1;"
         offset="0"
         id="stop3" />
    </linearGradient>
  </defs>
  <g
     inkscape:label="Layer 1"
     inkscape:groupmode="layer"
     id="layer1">
    <path
       id="path1"
       style="opacity:1;fill:none;stroke:#ffffeb;stroke-width:2;stroke-linecap:square;stroke-opacity:1"
       d="M 31,16 A 15,15 0 0 1 16,31 15,15 0 0 1 1,16 15,15 0 0 1 16,1 15,15 0 0 1 31,16 Z" />
    <path
       id="circle1"
       style="opacity:1;fill:#ffffeb;stroke:#ffffeb;stroke-width:0;stroke-linecap:square;stroke-dasharray:none"
       d="M 16 4 A 12 12 0 0 0 4 16 A 12 12 0 0 0 16 28 A 12 12 0 0 0 28 16 A 12 12 0 0 0 16 4 z M 14.980469 5.1992188 L 16.972656 5.1992188 C 17.132656 5.1992188 17.268859 5.2551875 17.380859 5.3671875 C 17.508859 5.4791875 17.572266 5.6247813 17.572266 5.8007812 L 17.572266 7.5273438 C 18.676266 7.7193437 19.603469 8.0645469 20.355469 8.5605469 C 21.107469 9.0565469 21.676547 9.6162344 22.060547 10.240234 C 22.460547 10.864234 22.667594 11.463063 22.683594 12.039062 C 22.683594 12.167063 22.635062 12.288391 22.539062 12.400391 C 22.443062 12.496391 22.323688 12.544922 22.179688 12.544922 L 19.011719 12.544922 C 18.835719 12.544922 18.684641 12.511266 18.556641 12.447266 C 18.428641 12.383266 18.316703 12.280719 18.220703 12.136719 C 18.124703 11.784719 17.867172 11.480609 17.451172 11.224609 C 17.035172 10.952609 16.507187 10.816406 15.867188 10.816406 C 15.163188 10.816406 14.612891 10.943219 14.212891 11.199219 C 13.828891 11.439219 13.636719 11.816125 13.636719 12.328125 C 13.636719 12.648125 13.739266 12.927969 13.947266 13.167969 C 14.171266 13.407969 14.531344 13.616969 15.027344 13.792969 C 15.539344 13.968969 16.235234 14.15175 17.115234 14.34375 C 18.571234 14.61575 19.748531 14.960953 20.644531 15.376953 C 21.540531 15.776953 22.195328 16.304937 22.611328 16.960938 C 23.027328 17.600937 23.236328 18.408766 23.236328 19.384766 C 23.236328 20.328766 22.995625 21.160859 22.515625 21.880859 C 22.051625 22.600859 21.396828 23.184812 20.548828 23.632812 C 19.700828 24.080812 18.708266 24.375531 17.572266 24.519531 L 17.572266 26.199219 C 17.572266 26.359219 17.508859 26.495422 17.380859 26.607422 C 17.268859 26.735422 17.132656 26.800781 16.972656 26.800781 L 14.980469 26.800781 C 14.804469 26.800781 14.660828 26.735422 14.548828 26.607422 C 14.436828 26.495422 14.380859 26.359219 14.380859 26.199219 L 14.380859 24.519531 C 13.148859 24.375531 12.115203 24.071422 11.283203 23.607422 C 10.467203 23.127422 9.8515469 22.560297 9.4355469 21.904297 C 9.0195469 21.248297 8.7956719 20.552406 8.7636719 19.816406 C 8.7636719 19.688406 8.8122031 19.576469 8.9082031 19.480469 C 9.0202031 19.368469 9.1489687 19.3125 9.2929688 19.3125 L 12.316406 19.3125 C 12.540406 19.3125 12.708313 19.351641 12.820312 19.431641 C 12.948312 19.511641 13.06025 19.616141 13.15625 19.744141 C 13.28425 19.984141 13.459594 20.215453 13.683594 20.439453 C 13.923594 20.663453 14.227703 20.848188 14.595703 20.992188 C 14.979703 21.120188 15.451719 21.183594 16.011719 21.183594 C 16.939719 21.183594 17.635609 21.039953 18.099609 20.751953 C 18.579609 20.463953 18.820312 20.072172 18.820312 19.576172 C 18.820312 19.208172 18.691547 18.9115 18.435547 18.6875 C 18.179547 18.4635 17.7635 18.263891 17.1875 18.087891 C 16.6275 17.895891 15.875641 17.703719 14.931641 17.511719 C 13.715641 17.255719 12.6765 16.927344 11.8125 16.527344 C 10.9645 16.111344 10.315188 15.575922 9.8671875 14.919922 C 9.4191875 14.247922 9.1953125 13.415828 9.1953125 12.423828 C 9.1953125 11.143828 9.6524531 10.056156 10.564453 9.1601562 C 11.492453 8.2641562 12.764859 7.7044687 14.380859 7.4804688 L 14.380859 5.8007812 C 14.380859 5.6247813 14.436828 5.4791875 14.548828 5.3671875 C 14.660828 5.2551875 14.804469 5.1992188 14.980469 5.1992188 z " />
  </g>
</svg>
